Coordinates
version=1
nRows=22
nColumns=38
inDegrees=no

Units are S.I. units (second, meters, Newtons, ...)
If the header above contains a line with 'inDegrees', this indicates whether rotational values are in degrees (yes) or radians (no).

endheader
time	pelvis_tilt	pelvis_list	pelvis_rotation	pelvis_tx	pelvis_ty	pelvis_tz	hip_flexion_r	hip_adduction_r	hip_rotation_r	knee_angle_r	ankle_angle_r	subtalar_angle_r	mtp_angle_r	hip_flexion_l	hip_adduction_l	hip_rotation_l	knee_angle_l	ankle_angle_l	subtalar_angle_l	mtp_angle_l	lumbar_extension	lumbar_bending	lumbar_rotation	arm_flex_r	arm_add_r	arm_rot_r	elbow_flex_r	pro_sup_r	wrist_flex_r	wrist_dev_r	arm_flex_l	arm_add_l	arm_rot_l	elbow_flex_l	pro_sup_l	wrist_flex_l	wrist_dev_l
0.11	-0.348779	-0.0351168	0.105612	0.755706	0.984536	-0.325165	0.211408	-0.124571	-0.330678	-1.67314	0.202486	0.0999995	0.0182342	0.830586	0.0435442	-0.345456	-0.358819	0.186273	0.0999997	0.0688765	0.228187	0.0069291	-0.0124856	-0.139786	-0.319912	0.0881124	1.33863	1.53732	0.0999999	0.0289822	-0.826701	-0.643242	0.237221	1.57748	1.23199	0.0999997	-0.0276507
0.12	-0.356523	-0.0360759	0.113082	0.752351	0.976444	-0.326512	0.286561	-0.147934	-0.318828	-1.8058	0.207035	0.0999995	0.0182342	0.852192	0.041914	-0.315862	-0.477569	0.275334	0.0999997	0.0688765	0.230417	0.00183975	-0.0342335	-0.153761	-0.320937	0.0921215	1.2855	1.52953	0.0999999	0.0289822	-0.763192	-0.659976	0.260085	1.58714	1.23019	0.0999997	-0.0276507
0.13	-0.365837	-0.0376101	0.118893	0.748757	0.96803	-0.327342	0.368707	-0.166604	-0.304427	-1.92259	0.212071	0.0999995	0.0182342	0.867218	0.0388748	-0.28931	-0.582295	0.360333	0.0999997	0.0688765	0.233788	-0.00203457	-0.0558181	-0.16855	-0.321896	0.0943279	1.23469	1.52411	0.0999999	0.0289822	-0.69812	-0.67471	0.279933	1.5977	1.2347	0.0999997	-0.0276507
0.14	-0.376578	-0.0397149	0.123007	0.744905	0.959847	-0.327692	0.457521	-0.180522	-0.287541	-2.02329	0.21766	0.0999995	0.0182342	0.875367	0.0343536	-0.265965	-0.672679	0.440796	0.0999997	0.0688765	0.238214	-0.00466617	-0.0771845	-0.184169	-0.322816	0.0948087	1.18625	1.52092	0.0999999	0.0289822	-0.631628	-0.687394	0.296672	1.60923	1.24537	0.0999997	-0.0276507
0.15	-0.388312	-0.0423723	0.125315	0.740894	0.952422	-0.32763	0.55196	-0.18956	-0.268386	-2.10733	0.223965	0.0999995	0.0182342	0.875789	0.0281495	-0.246283	-0.747896	0.51543	0.0999997	0.0688765	0.243422	-0.00596792	-0.0981659	-0.200664	-0.323797	0.0938158	1.14033	1.51955	0.0999999	0.0289822	-0.564165	-0.697871	0.310018	1.62189	1.2617	0.0999997	-0.0276507
0.16	-0.400245	-0.0455449	0.125651	0.736892	0.94616	-0.327274	0.650024	-0.193597	-0.24742	-2.17376	0.231225	0.0999995	0.0182342	0.867056	0.0199791	-0.230936	-0.806721	0.58208	0.0999997	0.0688765	0.248892	-0.00577846	-0.118483	-0.21811	-0.325076	0.0918403	1.09727	1.51913	0.0999999	0.0289822	-0.496594	-0.705853	0.319487	1.63604	1.28267	0.0999997	-0.0276507
0.17	-0.411276	-0.049176	0.123859	0.733103	0.941371	-0.326752	0.748774	-0.192662	-0.225399	-2.22148	0.23966	0.0999995	0.0182342	0.847421	0.00958194	-0.220681	-0.847899	0.637999	0.0999997	0.0688765	0.253884	-0.00385936	-0.137817	-0.236597	-0.327053	0.0895875	1.05763	1.51836	0.0999999	0.0289822	-0.430179	-0.710945	0.324488	1.6522	1.30676	0.0999997	-0.0276507
0.18	-0.420193	-0.0532314	0.11989	0.729781	0.938351	-0.326166	0.844646	-0.187071	-0.203365	-2.24945	0.249327	0.0999995	0.0182342	0.815265	-0.00313076	-0.216172	-0.870566	0.680113	0.0999997	0.0688765	0.257559	6.44265e-05	-0.155921	-0.256216	-0.330268	0.0878332	1.0222	1.51579	0.0999999	0.0289822	-0.366437	-0.712753	0.324543	1.67108	1.33196	0.0999997	-0.0276507
0.19	-0.425906	-0.0577105	0.113875	0.727212	0.937358	-0.325599	0.933957	-0.1775	-0.18254	-2.25705	0.260076	0.0999995	0.0182342	0.769612	-0.0179723	-0.217805	-0.874579	0.705259	0.0999997	0.0688765	0.259201	0.00623735	-0.172706	-0.277056	-0.335301	0.0871992	0.991865	1.51027	0.0999999	0.0289822	-0.306917	-0.711042	0.319555	1.69342	1.35605	0.0999997	-0.0276507
0.2	-0.427732	-0.0626284	0.106147	0.725639	0.938511	-0.325133	1.01347	-0.164938	-0.164158	-2.24416	0.27158	0.0999995	0.0182342	0.710541	-0.0344854	-0.225633	-0.860714	0.710529	0.0999997	0.0688765	0.258433	0.0147904	-0.188244	-0.299212	-0.342633	0.0879259	0.967507	1.50138	0.0999999	0.0289822	-0.25297	-0.705888	0.310007	1.71998	1.3769	0.0999997	-0.0276507
0.21	-0.425594	-0.0679894	0.0971733	0.72519	0.941743	-0.324833	1.08083	-0.150535	-0.149252	-2.21127	0.283431	0.0999995	0.0182342	0.639414	-0.0520477	-0.239409	-0.830785	0.693779	0.0999997	0.0688765	0.25538	0.0256496	-0.202714	-0.322797	-0.352505	0.089728	0.949813	1.48976	0.0999999	0.0289822	-0.205598	-0.697778	0.297013	1.7513	1.39292	0.0999997	-0.0276507
0.22	-0.420065	-0.0737314	0.0874806	0.725877	0.946814	-0.324719	1.13484	-0.13545	-0.138475	-2.15934	0.295224	0.0999995	0.0182342	0.558893	-0.0699692	-0.258568	-0.787675	0.654144	0.0999997	0.0688765	0.250721	0.038467	-0.216324	-0.347928	-0.364837	0.091779	0.939149	1.47702	0.0999999	0.0289822	-0.165366	-0.6876	0.282193	1.78769	1.40348	0.0999997	-0.0276507
0.23	-0.412284	-0.0796528	0.0776098	0.72762	0.953323	-0.324774	1.17546	-0.120738	-0.132018	-2.08967	0.306629	0.0999995	0.0182342	0.472731	-0.0875586	-0.282189	-0.73532	0.592492	0.0999997	0.0688765	0.245593	0.0526024	-0.229262	-0.374687	-0.379204	0.0928306	0.935486	1.4653	0.0999999	0.0289822	-0.132395	-0.676533	0.267437	1.82903	1.40907	0.0999997	-0.0276507
0.24	-0.40374	-0.0853775	0.0680934	0.730259	0.960734	-0.324969	1.20359	-0.107309	-0.129631	-2.00369	0.317438	0.0999995	0.0182342	0.385388	-0.104134	-0.308901	-0.678604	0.51174	0.0999997	0.0688765	0.241349	0.0671492	-0.241673	-0.403053	-0.394887	0.0914307	0.938393	1.4567	0.0999999	0.0289822	-0.106398	-0.665852	0.254615	1.87474	1.41119	0.0999997	-0.0276507
0.25	-0.39599	-0.0903562	0.0594353	0.733546	0.968459	-0.325279	1.2207	-0.0958973	-0.13075	-1.90279	0.327608	0.0999995	0.0182342	0.301499	-0.119007	-0.336812	-0.623089	0.416889	0.0999997	0.0688765	0.23927	0.0810142	-0.253644	-0.432829	-0.410957	0.0861967	0.947076	1.45262	0.0999999	0.0289822	-0.0867581	-0.656716	0.245333	1.92366	1.41197	0.0999997	-0.0276507
0.26	-0.390367	-0.0939173	0.0520606	0.737166	0.975951	-0.325676	1.22848	-0.0870166	-0.134677	-1.78828	0.337325	0.0999995	0.0182342	0.225284	-0.131497	-0.36356	-0.57455	0.314687	0.0999997	0.0688765	0.24029	0.0930412	-0.265158	-0.463588	-0.426384	0.0760976	0.960439	1.45338	0.0999999	0.0289822	-0.0726594	-0.649985	0.240744	1.97407	1.41351	0.0999997	-0.0276507
0.27	-0.387736	-0.0953634	0.0462389	0.74079	0.982786	-0.326145	1.22845	-0.0808938	-0.140798	-1.66143	0.34703	0.0999995	0.0182342	0.16004	-0.14098	-0.386589	-0.538404	0.212893	0.0999997	0.0688765	0.244797	0.102161	-0.276046	-0.494659	-0.440159	0.0606876	0.977174	1.45819	0.0999999	0.0289822	-0.0632525	-0.646101	0.24143	2.02378	1.41721	0.0999997	-0.0276507
0.28	-0.388373	-0.0940839	0.0420139	0.744149	0.988679	-0.326676	1.22182	-0.0774272	-0.14875	-1.52371	0.357341	0.0999995	0.0182342	0.107783	-0.146961	-0.403508	-0.519112	0.119082	0.0999997	0.0688765	0.252568	0.107546	-0.285956	-0.525146	-0.451433	0.0402417	0.995859	1.46533	0.0999999	0.0289822	-0.0578212	-0.645054	0.247352	2.07025	1.42344	0.0999997	-0.0276507
0.29	-0.391949	-0.0896695	0.039172	0.747077	0.99348	-0.327256	1.20941	-0.0762065	-0.158534	-1.3771	0.368869	0.0999995	0.0182342	0.0691547	-0.149148	-0.412501	-0.519735	0.0393276	0.0999997	0.0688765	0.262814	0.108738	-0.294376	-0.553999	-0.459641	0.0157615	1.01509	1.4726	0.0999999	0.0289822	-0.0558992	-0.646426	0.257873	2.11085	1.43148	0.0999997	-0.0276507
0.3	-0.397633	-0.0820219	0.037248	0.749523	0.997151	-0.327856	1.19182	-0.0765937	-0.1705	-1.22444	0.381939	0.0999995	0.0182342	0.0435526	-0.147498	-0.412611	-0.541707	-0.0228117	0.0999997	0.0688765	0.274336	0.105729	-0.30069	-0.580103	-0.464605	-0.0111684	1.03361	1.47787	0.0999999	0.0289822	-0.0573021	-0.649481	0.27186	2.14305	1.4399	0.0999997	-0.0276507
0.31	-0.404279	-0.0713973	0.0355794	0.75153	0.999713	-0.328412	1.16961	-0.0778194	-0.185201	-1.06961	0.396289	0.0999995	0.0182342	0.0294511	-0.142304	-0.403968	-0.584915	-0.0665181	0.0999997	0.0688765	0.285745	0.0989915	-0.304276	-0.602389	-0.466582	-0.0386351	1.05044	1.47957	0.0999999	0.0289822	-0.0620717	-0.653293	0.287846	2.16472	1.44712	0.0999997	-0.0276507
0.32	-0.410664	-0.0584016	0.0333983	0.753184	1.00119	-0.328849	1.14354	-0.0790712	-0.203137	-0.917598	0.410909	0.0999995	0.0182342	0.0248036	-0.13425	-0.387865	-0.647969	-0.093165	0.0999997	0.0688765	0.295685	0.0894542	-0.3046	-0.619934	-0.466237	-0.0646939	1.065	1.47702	0.0999999	0.0289822	-0.0703527	-0.656879	0.304251	2.17424	1.45199	0.0999997	-0.0276507
